{"scene":0,"scenes":[{"nodes":[0]}],"asset":{"version":"2.0","generator":"https://github.com/mikedh/trimesh"},"accessors":[{"componentType":5125,"type":"SCALAR","bufferView":0,"count":2904,"max":[504],"min":[0]},{"componentType":5126,"type":"VEC3","byteOffset":0,"bufferView":1,"count":505,"max":[1.3671875,0.8515625,0.984375],"min":[-1.3671875,-0.8515625,-0.984375]},{"componentType":5126,"count":505,"type":"VEC3","byteOffset":0,"bufferView":2,"max":[0.9980970025062561,0.964433491230011,0.9998255968093872],"min":[-0.9980970025062561,-0.9999880790710449,-0.9830567240715027]}],"meshes":[{"name":"mono.stl","extras":{"header":"Exported from Blender-3.6.5\u0000\u0000\u0000\u0000\u0000\u0000\u0000\u0000\u0000\u0000\u0000\u0000\u0000\u0000\u0000\u0000\u0000\u0000\u0000\u0000\u0000\u0000\u0000\u0000\u0000\u0000\u0000\u0000\u0000\u0000\u0000\u0000\u0000\u0000\u0000\u0000\u0000\u0000\u0000\u0000\u0000\u0000\u0000\u0000\u0000\u0000\u0000\u0000\u0000\u0000\u0000\u0000\u0000","processed":true},"primitives":[{"attributes":{"POSITION":1,"NORMAL":2},"indices":0,"mode":4}]}],"nodes":[{"name":"world","children":[1]},{"name":"mono.stl","mesh":0}],"buffers":[{"uri":"gltf_buffer_0.bin","byteLength":11616},{"uri":"gltf_buffer_1.bin","byteLength":6060},{"uri":"gltf_buffer_2.bin","byteLength":6060}],"bufferViews":[{"buffer":0,"byteOffset":0,"byteLength":11616},{"buffer":1,"byteOffset":0,"byteLength":6060},{"buffer":2,"byteOffset":0,"byteLength":6060}]}